<svg xmlns="http://www.w3.org/2000/svg" viewBox="0 0 128 128" role="img" aria-label="WindowsCloudPC logo">
  <defs>
    <linearGradient id="g" x1="0" x2="1" y1="0" y2="1">
      <stop offset="0%" stop-color="#67e8f9"/>
      <stop offset="100%" stop-color="#2563eb"/>
    </linearGradient>
  </defs>
  <rect width="128" height="128" rx="28" fill="#0b1220"/>
  <path d="M32 78c-9 0-16-7-16-16 0-8 6-15 14-16 4-12 15-20 28-20 14 0 26 10 29 23 13 1 23 12 23 25 0 14-11 25-25 25H33c-9 0-17-7-17-16 0-2 0-4 1-6 3 1 7 1 15 1Z" fill="url(#g)" opacity=".95"/>
  <path d="M39 58h50v9H39zm0 18h50v9H39z" fill="#06111f"/>
</svg>

